PathFileType	4	(X/Y/Z)	..\data\2015007\dynamic\2015007_C4_03.trc
DataRate	CameraRate	NumFrames	NumMarkers	Units	OrigDataRate	OrigDataStartFrame	OrigNumFrames
100.000000	100.000000	4	52	mm	100.000000	145	166
Frame#	Time	L_IAS			L_IPS			R_IPS			R_IAS			L_FTC			L_FLE			L_FME			L_FAX			L_TTC			L_FAL			L_TAM			L_FCC			L_FM1			L_FM2			L_FM5			R_FTC			R_FLE			R_FME			R_FAX			R_TTC			R_FAL			R_TAM			R_FCC			R_FM1			R_FM2			R_FM5			CV7			TV10			SXS			SJN			L_SIA			L_SRS			L_SAA			L_SAE			L_HLE			L_HME			L_UOA			L_RSP			L_UHE			L_HM2			L_HM5			R_SIA			R_SRS			R_SAA			R_SAE			R_HLE			R_HME			R_UOA			R_RSP			R_UHE			R_HM2			R_HM5			
		X1	Y1	Z1	X2	Y2	Z2	X3	Y3	Z3	X4	Y4	Z4	X5	Y5	Z5	X6	Y6	Z6	X7	Y7	Z7	X8	Y8	Z8	X9	Y9	Z9	X10	Y10	Z10	X11	Y11	Z11	X12	Y12	Z12	X13	Y13	Z13	X14	Y14	Z14	X15	Y15	Z15	X16	Y16	Z16	X17	Y17	Z17	X18	Y18	Z18	X19	Y19	Z19	X20	Y20	Z20	X21	Y21	Z21	X22	Y22	Z22	X23	Y23	Z23	X24	Y24	Z24	X25	Y25	Z25	X26	Y26	Z26	X27	Y27	Z27	X28	Y28	Z28	X29	Y29	Z29	X30	Y30	Z30	X31	Y31	Z31	X32	Y32	Z32	X33	Y33	Z33	X34	Y34	Z34	X35	Y35	Z35	X36	Y36	Z36	X37	Y37	Z37	X38	Y38	Z38	X39	Y39	Z39	X40	Y40	Z40	X41	Y41	Z41	X42	Y42	Z42	X43	Y43	Z43	X44	Y44	Z44	X45	Y45	Z45	X46	Y46	Z46	X47	Y47	Z47	X48	Y48	Z48	X49	Y49	Z49	X50	Y50	Z50	X51	Y51	Z51	X52	Y52	Z52	

146	1.45	433.932342529297	907.4161376953127	116.8067169189454	221.1791229248047	917.2299804687502	201.4651947021485	233.9438018798828	925.3356933593752	306.8040771484376	453.3542785644532	905.9881591796877	363.9078063964845	362.7541503906251	803.3757324218752	59.10606002807623	517.2482910156251	462.7619018554689	95.96620178222663	537.8159790039064	444.3247680664064	216.3861389160157	504.3716430664064	406.2741088867189	89.28806304931648	560.9382934570314	394.3042907714845	133.8438262939454	467.5477600097657	83.77349853515626	117.9748764038087	500.6326904296876	85.46551513671876	194.4329833984376	433.198211669922	31.9471664428711	175.6384735107423	600.1035766601564	32.11841583251954	162.8106689453126	592.0107421875001	46.11616516113282	118.3404541015626	542.4470825195314	26.39884948730469	83.64512634277352	359.1569213867188	809.3647460937502	429.1832885742189	337.7577514648438	436.9479980468751	355.2326660156251	317.8047790527344	426.6459045410157	228.636199951172	317.351318359375	383.2044677734376	359.946990966797	362.5160827636719	370.8417663574219	310.8907165527345	242.4905853271485	63.62229156494142	317.406951904297	266.7922973632812	78.50945281982423	235.6422119140626	194.1726531982422	20.44459915161133	267.6617431640626	372.6767883300781	19.16948509216309	245.3403320312501	370.6344909667969	29.97612190246583	292.2982482910157	319.8080749511719	10.21404266357422	345.197235107422	329.6161804199219	1409.656005859375	255.9235229492188	232.2850494384766	1171.717163085938	247.6943359375001	493.6056213378907	1078.1904296875	225.6578369140626	442.9359436035157	1328.666870117188	241.4903564453126	223.5619201660157	1221.048583984375	166.1855773925782	263.1241149902344	1349.37060546875	156.5238037109376	302.9072570800782	1354.64501953125	90.67411041259771	350.8907165527344	1362.289428710938	73.31863403320318	283.9887695312501	1059.325805664063	-1.582352399826015	257.8521423339844	1054.343627929688	73.29319000244145	253.5374755859376	1039.906127929688	23.69655036926273	348.6915283203126	827.6368408203127	20.6165161132813	282.8973999023438	831.0942382812502	-21.20582771301266	369.0025329589844	764.1905517578126	7.496087074279832	276.7652893066407	769.9280395507815	-23.24153137207028	232.0445709228516	1212.415283203125	331.7663574218751	275.69580078125	1335.559204101563	337.0497436523439	333.6549682617188	1337.386474609375	406.2800903320314	382.3966064453125	1341.868896484375	419.4493103027345	398.7576599121094	1023.626037597656	492.0360412597658	353.8593139648438	1006.412902832031	435.7362670898439	371.899169921875	989.0672607421877	479.2048950195314	523.8833007812501	833.9660644531252	463.9443359375002	484.1257324218751	823.4143066406252	510.254608154297	571.959228515625	767.7942504882814	468.7240600585939	506.4112548828126	758.7530517578126	520.7188720703127	
147	1.46	445.0901184082032	906.0837402343752	116.6868972778321	231.6775360107422	916.2672119140627	200.5909729003907	244.075927734375	924.011413574219	305.9297485351564	463.0428466796876	904.2604980468752	364.1106872558595	373.8405151367188	802.5540771484377	58.80122375488287	529.3142089843751	462.2351989746095	96.68978118896494	547.6421508789064	443.3195190429689	217.4004516601564	518.6832885742189	405.1962890625001	89.47921752929695	575.2480468750001	395.5486755371095	134.9347686767579	501.1870117187501	81.01206207275392	116.7237472534181	532.7487792968751	84.45689392089845	193.5652923583986	468.6832275390626	27.21784210205079	173.8083801269532	635.5774536132814	36.59299468994141	163.1677246093751	627.4119873046876	50.03639221191408	118.5478744506837	579.5954589843751	27.92073249816895	83.22196197509774	368.142578125	808.5242309570315	428.9680480957033	341.1640625	436.566375732422	354.9430236816407	321.2369384765626	426.6542358398439	228.2998352050782	320.1253662109375	383.0952758789063	359.6263122558595	365.349609375	370.1964416503907	310.7434997558595	242.7073974609375	64.08340454101564	316.7844543457032	267.3789367675781	78.86614990234376	235.0473175048829	194.2841796875	21.17222404479981	266.8014831542969	372.82080078125	19.05319595336914	245.2732391357423	370.6714172363281	29.86383056640626	292.1964111328126	319.6733093261719	10.24960899353028	344.9221496582032	340.8102416992188	1408.51025390625	255.7373046875001	243.3249664306641	1170.6875	247.5013122558595	504.5141601562501	1076.515991210938	225.3438720703126	454.0359191894532	1327.35791015625	241.1384887695314	234.5932312011719	1219.952514648438	165.9608001708985	274.2001342773438	1348.331420898438	156.4619140625001	313.8214416503907	1353.593139648438	90.64081573486334	361.7863464355469	1361.098999023438	73.14044189453131	290.8682556152344	1058.888916015625	-0.6750446557998302	265.9341125488282	1054.145385742188	74.24547576904301	261.0159606933594	1039.747192382813	24.5756874084473	353.1536560058594	826.2517089843752	21.0955028533936	286.9760131835938	830.5407714843752	-20.00583267211911	372.3741149902344	762.4302368164064	7.853678703308153	279.9228820800782	769.4108886718752	-21.85943222045895	242.8807983398438	1211.551513671875	331.9106445312501	287.0108947753906	1334.573608398438	337.0626831054689	345.226806640625	1336.280517578125	406.1608886718752	394.1257629394532	1340.650024414063	419.1219787597658	412.0233459472657	1022.650329589844	492.1466674804689	367.1219177246094	1004.9169921875	435.8123779296877	385.6611938476563	987.592956542969	479.1718750000002	539.8799438476564	834.8837890625002	462.2266845703127	500.5722351074219	823.4940185546877	508.7066345214845	589.1022338867188	769.5184326171877	466.4675903320314	523.9653930664062	759.1480102539064	518.7224121093752	
148	1.47	456.2561035156251	904.8201293945315	116.4444122314454	242.2781219482422	915.141540527344	199.7465972900391	254.267318725586	922.569274902344	305.0714416503907	472.7978210449219	902.590270996094	364.248748779297	384.8554992675782	801.5808715820315	58.45747756958014	540.8125000000001	461.3988037109376	97.37172698974619	556.7865600585939	441.7998046875001	218.3614959716798	532.3788452148439	403.9674682617189	89.65755462646493	588.9501342773439	396.5833740234376	135.9516906738282	534.0056762695314	79.17012023925783	115.7916183471681	564.0686035156251	84.27395629882814	192.9246673583986	503.4510803222657	23.56541633605957	172.419174194336	669.8873901367189	41.81048583984376	163.759246826172	661.6530761718751	54.65512466430665	118.9765930175782	615.6415405273439	30.27417182922364	83.10141754150399	377.1390075683594	807.6675415039065	428.6988830566408	344.7732543945312	436.237030029297	354.5884399414064	325.1311645507813	426.6665344238282	227.8826293945313	323.093505859375	383.0520324707032	359.2278442382814	368.3997192382812	369.5577697753907	310.5571899414064	242.9525451660157	64.67016601562501	316.1241455078126	268.0250854492188	79.29280853271486	234.4275512695313	194.4150390625	22.0532283782959	265.8639526367188	372.9451293945312	18.94395637512207	245.1991119384767	370.6690063476562	29.75606918334962	292.0829162597657	319.4867858886719	10.30585956573487	344.5928649902345	351.9656982421875	1407.273193359375	255.5171813964845	254.3255615234375	1169.580810546875	247.2393646240235	515.2910156250001	1074.77734375	225.0006713867189	465.1361389160157	1325.943115234375	240.7599945068361	245.6898498535157	1218.74609375	165.5923461914063	285.3141784667969	1347.190551757813	156.3084564208985	324.8147583007813	1352.432861328125	90.51036071777349	372.7618408203126	1359.812744140625	72.88901519775396	297.8905639648438	1058.402954101563	0.170428410172499	274.1893615722657	1053.87548828125	75.12573242187504	268.6579895019532	1039.528076171875	25.40730667114262	357.6525268554688	824.7778930664065	21.63838195800786	291.2196655273438	829.9795532226565	-18.87865447998044	375.7928466796876	760.6105346679689	8.318586349487353	283.2227172851563	768.8977661132815	-20.55870246887204	253.6747131347657	1210.581665039063	331.933807373047	298.2928466796875	1333.487182617188	336.9766845703126	356.7238464355469	1335.05859375	405.9581909179689	405.7665710449219	1339.309936523438	418.744842529297	425.1911621093751	1021.585144042969	492.1549072265627	380.3325805664062	1003.3095703125	435.7473144531252	399.3663024902344	986.0212402343752	478.9944152832033	555.6483764648439	835.6269531250002	460.434539794922	516.7893676757812	823.448425292969	507.0781250000002	605.9422607421876	771.028747558594	464.1394348144533	541.2285766601562	759.4107055664064	516.651306152344	
149	1.48	467.4476318359376	903.6259765625002	116.0980072021485	253.004150390625	913.855163574219	198.9102325439454	264.5250854492188	921.0447998046877	304.205535888672	482.6531982421876	901.0124511718752	364.3225708007814	395.8491516113282	800.4637451171877	58.06253051757819	551.8203735351564	460.2718200683595	98.00435638427744	565.3787231445314	439.8499755859376	219.2630004882814	545.5043945312501	402.5858764648439	89.83240509033212	602.0927734375001	397.4046630859376	136.9087524414064	565.6832275390626	78.14350891113283	115.2193984985353	594.3286743164064	84.80762481689455	192.5508117675783	537.1628417968751	20.91097259521485	171.5377044677735	702.7738037109376	47.58544158935548	164.5756683349611	694.4578247070314	59.79448318481447	119.6240539550782	650.2573242187501	33.2854118347168	83.29906463623057	386.1672668457032	806.8188476562502	428.3730773925783	348.6123962402344	435.971649169922	354.1926269531251	329.5130920410157	426.6720275878907	227.4032592773438	326.2816467285156	383.0844116210938	358.7765197753907	371.6902160644531	368.9342346191407	310.3580017089845	243.2345581054688	65.39678955078126	315.4501953125001	268.7387084960938	79.79980468750001	233.8053131103516	194.5713958740235	23.09819984436036	264.8782653808594	373.0505676269531	18.85138320922852	245.1222076416017	370.6291198730469	29.66192626953126	291.9647521972657	319.2529907226562	10.38698768615723	344.2215576171876	363.0811462402344	1405.951904296875	255.2474670410157	265.2837219238281	1168.398315429688	246.9100189208985	525.9365234375001	1073.01220703125	224.6280364990236	476.2279052734376	1324.443725585938	240.3540039062501	256.8353881835938	1217.439453125	165.0947570800782	296.4546508789063	1345.955688476563	156.0622558593751	335.8728027343751	1351.174560546875	90.28314208984381	383.8006896972657	1358.4453125	72.56377410888678	305.0903625488282	1057.866577148438	0.9336491823196787	282.6064147949219	1053.544921875	75.91510009765629	276.4680786132813	1039.256591796875	26.17300796508793	362.2146911621094	823.2371826171877	22.24056434631352	295.6593017578126	829.413757324219	-17.84065818786618	379.2816772460938	758.7493286132814	8.899778366088915	286.6974792480469	768.401550292969	-19.34910392761227	264.4316711425781	1209.508056640625	331.8302612304689	309.52734375	1332.307373046875	336.7856750488282	368.1243286132812	1333.732299804688	405.6687622070314	417.2913208007813	1337.866455078125	418.3195800781252	438.2607116699219	1020.437561035156	492.0510253906252	393.4795227050782	1001.610656738281	435.5418701171877	412.9963378906251	984.3699340820315	478.6756591796877	571.1729125976564	836.1976318359377	458.5745239257814	532.75732421875	823.2825927734377	505.3763427734377	622.4588623046876	772.322204589844	461.7488708496095	558.1757202148438	759.5436401367189	514.515563964844	
